<svg xmlns="http://www.w3.org/2000/svg" xmlns:xlink="http://www.w3.org/1999/xlink" viewBox="0 0 1560 1040" width="1560" height="1040" font-family="Helvetica Neue, Helvetica, Arial, sans-serif" xmlns:c2pa="http://c2pa.org/manifest"><metadata><c2pa:manifest>AAAWgmp1bWIAAAAeanVtZGMycGEAEQAQgAAAqgA4m3EDYzJwYQAAABZcanVtYgAAAEdqdW1kYzJtYQARABCAAACqADibcQN1cm46YzJwYToxYTFhMjMxYi05NDUwLTQ5MjUtOWVjNy0xNGI5MTVjNzMzMzAAAAADl2p1bWIAAAApanVtZGMyYXMAEQAQgAAAqgA4m3EDYzJwYS5hc3NlcnRpb25zAAAAALxqdW1iAAAARGp1bWRjYm9yABEAEIAAAKoAOJtxE2MycGEuaW5ncmVkaWVudC52MwAAAAAYYzJzaNSRwHvp3sJ9x954Cyt6gqYAAABwY2JvcqNpZGM6Zm9ybWF0bWltYWdlL3N2Zyt4bWxqaW5zdGFuY2VJRHgseG1wOmlpZDoyNTIyNWY3NC03MTAyLTQ3ODItOTYwOC0zNDE5NDk5MjUwNjBscmVsYXRpb25zaGlwaHBhcmVudE9mAAAB4mp1bWIAAABBanVtZGNib3IAEQAQgAAAqgA4m3ETYzJwYS5hY3Rpb25zLnYyAAAAABhjMnNodpM/Tr/9ypvP0oBvtR3PKQAAAZljYm9yomdhY3Rpb25zgqJmYWN0aW9ua2MycGEub3BlbmVkanBhcmFtZXRlcnOha2luZ3JlZGllbnRzgaJjdXJseC1zZWxmI2p1bWJmPWMycGEuYXNzZXJ0aW9ucy9jMnBhLmluZ3JlZGllbnQudjNkaGFzaFggnWDCOhxpBhz18NOhHfy/DNAU3L9/CwhceZz5PwWubnukZmFjdGlvbngdY29tLmFudGhyb3BpYy5jbGF1ZGUucHJvdmlkZWRqcGFyYW1ldGVyc6F4H2NvbS5hbnRocm9waWMub3JpZ2luLWNvbmZpZGVuY2VndW5rbm93bmtkZXNjcmlwdGlvbnhmQ2xhdWRlIHByb3ZpZGVkIHRoaXMgZmlsZSBhdCB0aGUgcmVxdWVzdCBvZiBhIHVzZXIgYW5kIG1heSBoYXZlIGNyZWF0ZWQgb3IgbW9kaWZpZWQgdGhlIGZpbGUgY29udGVudHMubXNvZnR3YXJlQWdlbnShZG5hbWVmQ2xhdWRlcmFsbEFjdGlvbnNJbmNsdWRlZPUAAADIanVtYgAAAEBqdW1kY2JvcgARABCAAACqADibcRNjMnBhLmhhc2guZGF0YQAAAAAYYzJzaMm571v2itSc3hxT6z+eMYEAAACAY2JvcqVjYWxnZnNoYTI1NmNwYWRMAAAAAAAAAAAAAAAAZGhhc2hYICHO0iNIqviSBBrUpc40NGUvsOxuhQDMc3ulBXV4xxwJZG5hbWVuanVtYmYgbWFuaWZlc3RqZXhjbHVzaW9uc4GiZXN0YXJ0GQEAZmxlbmd0aBkeBAAAAj5qdW1iAAAAJ2p1bWRjMmNsABEAEIAAAKoAOJtxA2MycGEuY2xhaW0udjIAAAACD2Nib3KlY2FsZ2ZzaGEyNTZpc2lnbmF0dXJleE1zZWxmI2p1bWJmPS9jMnBhL3VybjpjMnBhOjFhMWEyMzFiLTk0NTAtNDkyNS05ZWM3LTE0YjkxNWM3MzMzMC9jMnBhLnNpZ25hdHVyZWppbnN0YW5jZUlEeCx4bXA6aWlkOjE5ODE4Mjg4LThiZTQtNGFjOC05MWZlLWMzMWI4ZWU5YTM3OXJjcmVhdGVkX2Fzc2VydGlvbnODomN1cmx4LXNlbGYjanVtYmY9YzJwYS5hc3NlcnRpb25zL2MycGEuaW5ncmVkaWVudC52M2RoYXNoWCCdYMI6HGkGHPXw06Ed/L8M0BTcv38LCFx5nPk/Ba5ue6JjdXJseCpzZWxmI2p1bWJmPWMycGEuYXNzZXJ0aW9ucy9jMnBhLmFjdGlvbnMudjJkaGFzaFggjaNHDDlsHUsmO2wJro9hXKCUZyDHBUshxUFMuGnJcBiiY3VybHgpc2VsZiNqdW1iZj1jMnBhLmFzc2VydGlvbnMvYzJwYS5oYXNoLmRhdGFkaGFzaFgg2NTo3yhL3InfJGDfNuYycSeQcKm/pgs40n/sFsLSXI90Y2xhaW1fZ2VuZXJhdG9yX2luZm+jZG5hbWVvQW50aHJvcGljIEZpbGVzZ3ZlcnNpb25lMS4wLjBrc3BlY1ZlcnNpb25lMi40LjAAABA4anVtYgAAAChqdW1kYzJjcwARABCAAACqADibcQNjMnBhLnNpZ25hdHVyZQAAABAIY2JvctKEWQISogEmGCFZAgowggIGMIIBjaADAgECAhRA5aAK7sI50L64g/oGQgU9Z1UTADAKBggqhkjOPQQDAzBJMRcwFQYDVQQKEw5BbnRocm9waWMsIFBCQzEuMCwGA1UEAxMlQW50aHJvcGljIENvbnRlbnQgQ3JlZGVudGlhbHMgUm9vdCBDQTAeFw0yNjA4MDcxODQzNTZaFw0yODA4MDYxOTQzNTZaMEQxFzAVBgNVBAoTDkFudGhyb3BpYywgUEJDMSkwJwYDVQQDEyBBbnRocm9waWMgQ2xhdWRlIENvbnRlbnQgU2lnbmluZzBZMBMGByqGSM49AgEGCCqGSM49AwEHA0IABJh6CmvLUBgFFNU0vUKlOVtE6djd17L5SuwX0LemFisBM3dkd/3cyjxFA3Qo5S46fX0/ihY0VZ7mfb9KF703t5OjWDBWMA4GA1UdDwEB/wQEAwIHgDAVBgNVHSUEDjAMBgorBgEEAYPoXgIBMAwGA1UdEwEB/wQCMAAwHwYDVR0jBBgwFoAUzlHiBIFOZFsj+OPEz5o+nMHXXMIwCgYIKoZIzj0EAwMDZwAwZAIwMXMdFJ4BetLLVY7ORuE9noqbbAZOZn/aArXyTwFAZfKrPzxF2vPoJNf1+UCdg1XGAjBwX1zd9WGqYkqmL5SFqw1QySjr1zJfpJM9+1rdDwSPLMOPOjKuiXjoU/pUUeG9RwmhY3BhZFkNngAAAAAAAAAAAAAAAAAAAAAAAAAAAAAAAAAAAAAAAAAAAAAAAAAAAAAAAAAAAAAAAAAAAAAAAAAAAAAAAAAAAAAAAAAAAAAAAAAAAAAAAAAAAAAAAAAAAAAAAAAAAAAAAAAAAAAAAAAAAAAAAAAAAAAAAAAAAAAAAAAAAAAAAAAAAAAAAAAAAAAAAAAAAAAAAAAAAAAAAAAAAAAAAAAAAAAAAAAAAAAAAAAAAAAAAAAAAAAAAAAAAAAAAAAAAAAAAAAAAAAAAAAAAAAAAAAAAAAAAAAAAAAAAAAAAAAAAAAAAAAAAAAAAAAAAAAAAAAAAAAAAAAAAAAAAAAAAAAAAAAAAAAAAAAAAAAAAAAAAAAAAAAAAAAAAAAAAAAAAAAAAAAAAAAAAAAAAAAAAAAAAAAAAAAAAAAAAAAAAAAAAAAAAAAAAAAAAAAAAAAAAAAAAAAAAAAAAAAAAAAAAAAAAAAAAAAAAAAAAAAAAAAAAAAAAAAAAAAAAAAAAAAAAAAAAAAAAAAAAAAAAAAAAAAAAAAAAAAAAAAAAAAAAAAAAAAAAAAAAAAAAAAAAAAAAAAAAAAAAAAAAAAAAAAAAAAAAAAAAAAAAAAAAAAAAAAAAAAAAAAAAAAAAAAAAAAAAAAAAAAAAAAAAAAAAAAAAAAAAAAAAAAAAAAAAAAAAAAAAAAAAAAAAAAAAAAAAAAAAAAAAAAAAAAAAAAAAAAAAAAAAAAAAAAAAAAAAAAAAAAAAAAAAAAAAAAAAAAAAAAAAAAAAAAAAAAAAAAAAAAAAAAAAAAAAAAAAAAAAAAAAAAAAAAAAAAAAAAAAAAAAAAAAAAAAAAAAAAAAAAAAAAAAAAAAAAAAAAAAAAAAAAAAAAAAAAAAAAAAAAAAAAAAAAAAAAAAAAAAAAAAAAAAAAAAAAAAAAAAAAAAAAAAAAAAAAAAAAAAAAAAAAAAAAAAAAAAAAAAAAAAAAAAAAAAAAAAAAAAAAAAAAAAAAAAAAAAAAAAAAAAAAAAAAAAAAAAAAAAAAAAAAAAAAAAAAAAAAAAAAAAAAAAAAAAAAAAAAAAAAAAAAAAAAAAAAAAAAAAAAAAAAAAAAAAAAAAAAAAAAAAAAAAAAAAAAAAAAAAAAAAAAAAAAAAAAAAAAAAAAAAAAAAAAAAAAAAAAAAAAAAAAAAAAAAAAAAAAAAAAAAAAAAAAAAAAAAAAAAAAAAAAAAAAAAAAAAAAAAAAAAAAAAAAAAAAAAAAAAAAAAAAAAAAAAAAAAAAAAAAAAAAAAAAAAAAAAAAAAAAAAAAAAAAAAAAAAAAAAAAAAAAAAAAAAAAAAAAAAAAAAAAAAAAAAAAAAAAAAAAAAAAAAAAAAAAAAAAAAAAAAAAAAAAAAAAAAAAAAAAAAAAAAAAAAAAAAAAAAAAAAAAAAAAAAAAAAAAAAAAAAAAAAAAAAAAAAAAAAAAAAAAAAAAAAAAAAAAAAAAAAAAAAAAAAAAAAAAAAAAAAAAAAAAAAAAAAAAAAAAAAAAAAAAAAAAAAAAAAAAAAAAAAAAAAAAAAAAAAAAAAAAAAAAAAAAAAAAAAAAAAAAAAAAAAAAAAAAAAAAAAAAAAAAAAAAAAAAAAAAAAAAAAAAAAAAAAAAAAAAAAAAAAAAAAAAAAAAAAAAAAAAAAAAAAAAAAAAAAAAAAAAAAAAAAAAAAAAAAAAAAAAAAAAAAAAAAAAAAAAAAAAAAAAAAAAAAAAAAAAAAAAAAAAAAAAAAAAAAAAAAAAAAAAAAAAAAAAAAAAAAAAAAAAAAAAAAAAAAAAAAAAAAAAAAAAAAAAAAAAAAAAAAAAAAAAAAAAAAAAAAAAAAAAAAAAAAAAAAAAAAAAAAAAAAAAAAAAAAAAAAAAAAAAAAAAAAAAAAAAAAAAAAAAAAAAAAAAAAAAAAAAAAAAAAAAAAAAAAAAAAAAAAAAAAAAAAAAAAAAAAAAAAAAAAAAAAAAAAAAAAAAAAAAAAAAAAAAAAAAAAAAAAAAAAAAAAAAAAAAAAAAAAAAAAAAAAAAAAAAAAAAAAAAAAAAAAAAAAAAAAAAAAAAAAAAAAAAAAAAAAAAAAAAAAAAAAAAAAAAAAAAAAAAAAAAAAAAAAAAAAAAAAAAAAAAAAAAAAAAAAAAAAAAAAAAAAAAAAAAAAAAAAAAAAAAAAAAAAAAAAAAAAAAAAAAAAAAAAAAAAAAAAAAAAAAAAAAAAAAAAAAAAAAAAAAAAAAAAAAAAAAAAAAAAAAAAAAAAAAAAAAAAAAAAAAAAAAAAAAAAAAAAAAAAAAAAAAAAAAAAAAAAAAAAAAAAAAAAAAAAAAAAAAAAAAAAAAAAAAAAAAAAAAAAAAAAAAAAAAAAAAAAAAAAAAAAAAAAAAAAAAAAAAAAAAAAAAAAAAAAAAAAAAAAAAAAAAAAAAAAAAAAAAAAAAAAAAAAAAAAAAAAAAAAAAAAAAAAAAAAAAAAAAAAAAAAAAAAAAAAAAAAAAAAAAAAAAAAAAAAAAAAAAAAAAAAAAAAAAAAAAAAAAAAAAAAAAAAAAAAAAAAAAAAAAAAAAAAAAAAAAAAAAAAAAAAAAAAAAAAAAAAAAAAAAAAAAAAAAAAAAAAAAAAAAAAAAAAAAAAAAAAAAAAAAAAAAAAAAAAAAAAAAAAAAAAAAAAAAAAAAAAAAAAAAAAAAAAAAAAAAAAAAAAAAAAAAAAAAAAAAAAAAAAAAAAAAAAAAAAAAAAAAAAAAAAAAAAAAAAAAAAAAAAAAAAAAAAAAAAAAAAAAAAAAAAAAAAAAAAAAAAAAAAAAAAAAAAAAAAAAAAAAAAAAAAAAAAAAAAAAAAAAAAAAAAAAAAAAAAAAAAAAAAAAAAAAAAAAAAAAAAAAAAAAAAAAAAAAAAAAAAAAAAAAAAAAAAAAAAAAAAAAAAAAAAAAAAAAAAAAAAAAAAAAAAAAAAAAAAAAAAAAAAAAAAAAAAAAAAAAAAAAAAAAAAAAAAAAAAAAAAAAAAAAAAAAAAAAAAAAAAAAAAAAAAAAAAAAAAAAAAAAAAAAAAAAAAAAAAAAAAAAAAAAAAAAAAAAAAAAAAAAAAAAAAAAAAAAAAAAAAAAAAAAAAAAAAAAAAAAAAAAAAAAAAAAAAAAAAAAAAAAAAAAAAAAAAAAAAAAAAAAAAAAAAAAAAAAAAAAAAAAAAAAAAAAAAAAAAAAAAAAAAAAAAAAAAAAAAAAAAAAAAAAAAAAAAAAAAAAAAAAAAAAAAAAAAAAAAAAAAAAAAAAAAAAAAAAAAAAAAAAAAAAAAAAAAAAAAAAAAAAAAAAAAAAAAAAAAAAAAAAAAAAAAAAAAAAAAAAAAAAAAAAAAAAAAAAAAAAAAAAAAAAAAAAAAAAAAAAAAAAAAAAAAAAAAAAAAAAAAAAAAAAAAAAAAAAAAAAAAAAAAAAAAAAAAAAAAAAAAAAAAAAAAAAAAAAAAAAAAAAAAAAAAAAAAAAAAAAAAAAAAAAAAAAAAAAAAAAAAAAAAAAAAAAAAAAAAAAAAAAAAAAAAAAAAAAAAAAAAAAAAAAAAAAAAAAAAAAAAAAAAAAAAAAAAAAAAAAAAAAAAAAAAAAAAAAAAAAAAAAAAAAAAAAAAAAAAAAAAAAAAAAAAAAAAAAAAAAAAAAAAAAAAAAAAAAAAAAAAAAAAAAAAAAAAAAAAAAAAAAAAAAAAAAAAAAAAAAAAAAAAAAAAAAAAAAAAAAAAAAAAAAAAAAAAAAAAAAAAAAAAAAAAAAAAAAAAAAAAAAAAAAAAAAAAAAAAAAAAAAAAAAAAAAAAAAAAAAAAAAAAAAAAAAAAAAAAAAAAAAAAAAAAAAAAAAAAAAAAAAAAAAAAAAAAAAAAAAAAAAAAAAAAAAAAAAAAAAAAAAAAAAAAAAAAAAAAAAAAAAAAAAAAAAAAAAAAAAAAAAAAAAAAAAAAAAAAAAAAAAAAAAAAAAAAAAAAAAAAAAAAAAAAAAAAAAAAAAAAAAAAAAAAAAAAAAAAAAAAAAAAAAAAAAAAAAAAAAAAAAAAAAAAAAAAAAAAAAAAAAAAAAAAAAAAAAAAAAAAAAAAAAAAAAAAAAAAAAAAAAAAAAAAAAAAAAAAAAAAAAAAAAAAAAAAAAAAAAAAAAAAAAAAAAAAAAAAAAAAAAAAAAAAAAAAAAAAAAAAAAAAAAAAAAAAAAAAAAAAAAAAAAAAAAAAAAAAAAAAAAAAAAAAAAAAAAAAAAAAAAAAAAAAAAAAAAAAAAAAAAAAAAAAAAAAAAAAAAAAAAAAAAAAAAAAAAAAAAAAAAAAAAAAAAAAAAAAAAAAAAAAAAAAAAAAAAAAAAAAAAAAAAAAAAAAAAAAAAAAAAAAAAAAAAAAAAAAAAAAAAAAAAAAAAAAAAAAAAAAAAAAAAAAAAAAAAAAAAAAAAAAAAAAAAAAAAAAAAAAAAAAAAAAAAAAAAAAAAAAAAAAAAAAAAAAAAAAAAAAAAAAAAAAAAAAAAAAAAAAAAAAAAAAAAAAAAAAAAAAAAAAAAAAAAAAAAAAAAAAAAAAAAAAAAAAAAAAAAAAAAAAAAAAAAAAAAAAAAAAAAAAAAAAAAAAAAAAAAAAAAAAAAAAAAAAAAAAAAAAAAAAAAAAAAAAAAAAAAAAAAAAAAAAAAAAAAAAAAAAAAAAAAAAAAAAAAAAAAAAAAAAAAAAAAAAAAAAAAAAPZYQI230KLQQ9TxFh1Z2RbWRBaOluILV+CkDznFG5VMqYz21lTdLDlOuwXPSitkQ5cAAUR0t/GVs8I1pRZWgyirK08=</c2pa:manifest></metadata>
  <defs>
    <marker id="arrB" viewBox="0 0 10 10" refX="9" refY="5" markerWidth="7" markerHeight="7" orient="auto">
      <path d="M0,0 L10,5 L0,10 z" fill="#16191F"/>
    </marker>
    <marker id="arrBlue" viewBox="0 0 10 10" refX="9" refY="5" markerWidth="7" markerHeight="7" orient="auto">
      <path d="M0,0 L10,5 L0,10 z" fill="#2196F3"/>
    </marker>
    <marker id="arrPink" viewBox="0 0 10 10" refX="9" refY="5" markerWidth="7" markerHeight="7" orient="auto">
      <path d="M0,0 L10,5 L0,10 z" fill="#E7157B"/>
    </marker>

    <symbol id="ic-edge" viewBox="0 0 40 40">
      <rect width="40" height="40" rx="8" fill="#8C4FFF"/>
      <circle cx="20" cy="20" r="11" fill="none" stroke="#fff" stroke-width="1.8"/>
      <ellipse cx="20" cy="20" rx="4.5" ry="11" fill="none" stroke="#fff" stroke-width="1.4"/>
      <path d="M9.5 20 H30.5" stroke="#fff" stroke-width="1.4"/>
    </symbol>
    <symbol id="ic-waf" viewBox="0 0 40 40">
      <rect width="40" height="40" rx="8" fill="#DD344C"/>
      <path d="M20 8 L30 12.5 V21 c0 6.5-5 10-10 11.5C15 31 10 27.5 10 21 v-8.5z" fill="none" stroke="#fff" stroke-width="1.9"/>
      <path d="M15.5 20.5 l3.5 3.5 l6-7" fill="none" stroke="#fff" stroke-width="1.9" stroke-linecap="round" stroke-linejoin="round"/>
    </symbol>
    <symbol id="ic-compute" viewBox="0 0 40 40">
      <rect width="40" height="40" rx="8" fill="#ED7100"/>
      <rect x="12" y="12" width="16" height="16" rx="2.5" fill="none" stroke="#fff" stroke-width="1.9"/>
      <rect x="17" y="17" width="6" height="6" rx="1" fill="#fff"/>
      <g stroke="#fff" stroke-width="1.7" stroke-linecap="round">
        <path d="M16 12 V8 M24 12 V8 M16 28 V32 M24 28 V32 M12 16 H8 M12 24 H8 M28 16 H32 M28 24 H32"/>
      </g>
    </symbol>
    <symbol id="ic-db" viewBox="0 0 40 40">
      <rect width="40" height="40" rx="8" fill="#3B48CC"/>
      <ellipse cx="20" cy="12.5" rx="9" ry="3.6" fill="none" stroke="#fff" stroke-width="1.8"/>
      <path d="M11 12.5 V27.5 c0 2 4 3.6 9 3.6 s9-1.6 9-3.6 V12.5" fill="none" stroke="#fff" stroke-width="1.8"/>
      <path d="M11 20 c0 2 4 3.6 9 3.6 s9-1.6 9-3.6" fill="none" stroke="#fff" stroke-width="1.4"/>
    </symbol>
    <symbol id="ic-net" viewBox="0 0 40 40">
      <rect width="40" height="40" rx="8" fill="#1D8102"/>
      <circle cx="20" cy="20" r="11" fill="none" stroke="#fff" stroke-width="1.8"/>
      <path d="M20 26 V14 M15.5 18.5 L20 14 L24.5 18.5" fill="none" stroke="#fff" stroke-width="2" stroke-linecap="round" stroke-linejoin="round"/>
    </symbol>
    <symbol id="ic-mon" viewBox="0 0 40 40">
      <rect width="40" height="40" rx="8" fill="#E7157B"/>
      <path d="M13 24 a6 6 0 1 1 4-10.5 a7 7 0 0 1 12.5 4 A5.2 5.2 0 0 1 28 24z" fill="none" stroke="#fff" stroke-width="1.7"/>
      <circle cx="21" cy="21.5" r="4.6" fill="none" stroke="#fff" stroke-width="1.7"/>
      <path d="M24.4 25 L29 29.5" stroke="#fff" stroke-width="2" stroke-linecap="round"/>
    </symbol>
    <symbol id="ic-alarm" viewBox="0 0 40 40">
      <rect width="40" height="40" rx="8" fill="#E7157B"/>
      <g stroke="#fff" stroke-width="2.6" stroke-linecap="round">
        <path d="M13 28 V21 M20 28 V14 M27 28 V18"/>
      </g>
      <path d="M9 31 H31" stroke="#fff" stroke-width="1.6" stroke-linecap="round"/>
    </symbol>
    <symbol id="ic-sns" viewBox="0 0 40 40">
      <rect width="40" height="40" rx="8" fill="#E7157B"/>
      <circle cx="20" cy="20" r="3.4" fill="#fff"/>
      <path d="M13.5 13.5 a9 9 0 0 0 0 13 M26.5 13.5 a9 9 0 0 1 0 13" fill="none" stroke="#fff" stroke-width="1.7" stroke-linecap="round"/>
      <path d="M9.5 9.5 a15 15 0 0 0 0 21 M30.5 9.5 a15 15 0 0 1 0 21" fill="none" stroke="#fff" stroke-width="1.4" stroke-linecap="round"/>
    </symbol>
    <symbol id="ic-ssm" viewBox="0 0 40 40">
      <rect width="40" height="40" rx="8" fill="#E7157B"/>
      <path d="M12 26 a5.5 5.5 0 0 1 1.2-10.8 a7 7 0 0 1 13.2 2.2 A5 5 0 0 1 27.5 26z" fill="none" stroke="#fff" stroke-width="1.7"/>
      <circle cx="20" cy="21" r="3" fill="none" stroke="#fff" stroke-width="1.6"/>
      <path d="M20 16.5 V15 M20 27 V25.5 M15.5 21 H14 M26 21 H24.5" stroke="#fff" stroke-width="1.5" stroke-linecap="round"/>
    </symbol>
    <symbol id="ic-vpc" viewBox="0 0 40 40">
      <rect width="40" height="40" rx="8" fill="#8C4FFF"/>
      <path d="M12.5 27 a6 6 0 0 1 1-11.8 a7.5 7.5 0 0 1 14 2.4 A5.2 5.2 0 0 1 27 27z" fill="none" stroke="#fff" stroke-width="1.9"/>
    </symbol>
    <symbol id="ic-igw" viewBox="0 0 40 40">
      <rect width="40" height="40" rx="8" fill="#8C4FFF"/>
      <path d="M12.5 26 a6 6 0 0 1 1-11.6 a7.5 7.5 0 0 1 14 2.3 A5.2 5.2 0 0 1 27 26z" fill="none" stroke="#fff" stroke-width="1.8"/>
      <path d="M20 32 V21 M16.5 24.5 L20 21 L23.5 24.5" fill="none" stroke="#fff" stroke-width="1.8" stroke-linecap="round" stroke-linejoin="round"/>
    </symbol>
    <symbol id="ic-alb" viewBox="0 0 40 40">
      <rect width="40" height="40" rx="8" fill="#8C4FFF"/>
      <path d="M20 9 L31 15 L20 21 L9 15 z" fill="none" stroke="#fff" stroke-width="1.8" stroke-linejoin="round"/>
      <path d="M9 20.5 L20 26.5 L31 20.5" fill="none" stroke="#fff" stroke-width="1.6" stroke-linejoin="round"/>
      <path d="M9 26 L20 32 L31 26" fill="none" stroke="#fff" stroke-width="1.6" stroke-linejoin="round"/>
    </symbol>
    <symbol id="ic-lockg" viewBox="0 0 40 40">
      <rect width="40" height="40" rx="8" fill="#1D8102"/>
      <rect x="12" y="19" width="16" height="13" rx="2" fill="none" stroke="#fff" stroke-width="2"/>
      <path d="M15.5 19 v-4 a4.5 4.5 0 0 1 9 0 v4" fill="none" stroke="#fff" stroke-width="2"/>
    </symbol>
    <symbol id="ic-lockb" viewBox="0 0 40 40">
      <rect width="40" height="40" rx="8" fill="#3B48CC"/>
      <rect x="12" y="19" width="16" height="13" rx="2" fill="none" stroke="#fff" stroke-width="2"/>
      <path d="M15.5 19 v-4 a4.5 4.5 0 0 1 9 0 v4" fill="none" stroke="#fff" stroke-width="2"/>
    </symbol>
    <symbol id="ic-users" viewBox="0 0 40 40">
      <g fill="#3B3B47">
        <circle cx="20" cy="12" r="5.2"/>
        <path d="M11 30 a9 9 0 0 1 18 0 z"/>
        <circle cx="7.5" cy="16" r="4.2"/>
        <path d="M0.5 30 a7 7 0 0 1 14 0 z"/>
        <circle cx="32.5" cy="16" r="4.2"/>
        <path d="M25.5 30 a7 7 0 0 1 14 0 z"/>
      </g>
    </symbol>
    <symbol id="ic-noentry" viewBox="0 0 40 40">
      <circle cx="20" cy="20" r="15" fill="none" stroke="#DD344C" stroke-width="3.4"/>
      <path d="M10.5 10.5 L29.5 29.5" stroke="#DD344C" stroke-width="3.4" stroke-linecap="round"/>
    </symbol>
  </defs>

  <rect width="1560" height="1040" fill="#FFFFFF"/>

  <!-- Title -->
  <text x="780" y="34" text-anchor="middle" font-size="24" font-weight="700" fill="#16191F">Lumina Dental — AWS Solution Architecture (As Implemented)</text>

  <!-- Users -->
  <use href="#ic-users" xlink:href="#ic-users" x="650" y="44" width="36" height="36"/>
  <text x="668" y="96" text-anchor="middle" font-size="11" font-weight="700" fill="#3B3B47">Users / Clients</text>

  <!-- Planned / not implemented -->
  <rect x="220" y="96" width="306" height="118" rx="6" fill="#FFFFFF" stroke="#9AA0A6" stroke-width="1.4" stroke-dasharray="7 5"/>
  <use href="#ic-noentry" xlink:href="#ic-noentry" x="238" y="106" width="32" height="32"/>
  <text x="288" y="120" font-size="11.5" font-weight="700" fill="#DD344C">PLANNED — NOT IMPLEMENTED</text>
  <text x="288" y="142" font-size="11" fill="#3B3B47">Amazon Route 53 (DNS)</text>
  <text x="288" y="160" font-size="11" fill="#3B3B47">AWS Certificate Manager (TLS)</text>
  <text x="288" y="178" font-size="11" fill="#3B3B47">ALB HTTPS Listener :443</text>
  <text x="240" y="201" font-size="10" font-style="italic" fill="#6B7280">No domain was purchased  —  app served over HTTP</text>

  <!-- CloudFront -->
  <rect x="552" y="118" width="232" height="62" rx="8" fill="#FFFFFF" stroke="#8C4FFF" stroke-width="1.8"/>
  <use href="#ic-edge" xlink:href="#ic-edge" x="560" y="124" width="50" height="50"/>
  <text x="622" y="145" font-size="13" font-weight="700" fill="#16191F">Amazon CloudFront</text>
  <text x="622" y="163" font-size="10.5" fill="#3B3B47">Edge cache · Origin = ALB</text>

  <!-- WAF -->
  <rect x="858" y="118" width="222" height="62" rx="8" fill="#FEF2F2" stroke="#DD344C" stroke-width="1.8"/>
  <use href="#ic-waf" xlink:href="#ic-waf" x="866" y="124" width="50" height="50"/>
  <text x="928" y="145" font-size="13" font-weight="700" fill="#DD344C">AWS WAF</text>
  <text x="928" y="163" font-size="10.5" fill="#3B3B47">Web ACL:  dental-waf</text>
  <path d="M786 149 H852" stroke="#16191F" stroke-width="1.6" marker-end="url(#arrB)"/>
  <text x="819" y="142" text-anchor="middle" font-size="9.5" fill="#3B3B47">inspects</text>

  <!-- Internet Gateway -->
  <rect x="571" y="206" width="194" height="52" rx="8" fill="#FFFFFF" stroke="#8C4FFF" stroke-width="1.8"/>
  <use href="#ic-igw" xlink:href="#ic-igw" x="578" y="211" width="42" height="42"/>
  <text x="630" y="228" font-size="12" font-weight="700" fill="#16191F">Internet Gateway</text>
  <text x="630" y="244" font-size="10" fill="#3B3B47">aws:project-igw</text>

  <!-- ALB -->
  <rect x="532" y="282" width="272" height="62" rx="8" fill="#FFFFFF" stroke="#8C4FFF" stroke-width="1.8"/>
  <use href="#ic-alb" xlink:href="#ic-alb" x="540" y="288" width="50" height="50"/>
  <text x="602" y="303" font-size="12.5" font-weight="700" fill="#16191F">Application Load Balancer</text>
  <text x="602" y="319" font-size="10" fill="#3B3B47">Internet-facing · HTTP :80 · alb-sg</text>
  <text x="602" y="334" font-size="10" fill="#3B3B47">Target Group: instance / HTTP:80</text>

  <!-- vertical spine -->
  <path d="M668 100 V202" stroke="#16191F" stroke-width="1.6" marker-end="url(#arrB)"/>
  <path d="M668 258 V278" stroke="#16191F" stroke-width="1.6" marker-end="url(#arrB)"/>

  <!-- VPC -->
  <rect x="18" y="352" width="1300" height="540" rx="10" fill="none" stroke="#8C4FFF" stroke-width="1.8" stroke-dasharray="9 6"/>
  <use href="#ic-vpc" xlink:href="#ic-vpc" x="20" y="354" width="42" height="42"/>
  <text x="72" y="381" font-size="13" font-weight="700" fill="#7B3FF2">VPC  ·  aws-project-vpc  ·  10.0.0.0/16</text>

  <!-- ALB to AZ target groups -->
  <path d="M620 344 V404 H58 V652" fill="none" stroke="#16191F" stroke-width="1.6"/>
  <path d="M58 658 H74" stroke="#16191F" stroke-width="1.6" marker-end="url(#arrB)"/>
  <path d="M716 344 V404 H1312 V652" fill="none" stroke="#16191F" stroke-width="1.6"/>
  <path d="M1312 658 H1278" stroke="#16191F" stroke-width="1.6" marker-end="url(#arrB)"/>
  <text x="370" y="397" text-anchor="middle" font-size="10" fill="#3B3B47">HTTP :80 → Target Group (AZ-1)</text>
  <text x="990" y="397" text-anchor="middle" font-size="10" fill="#3B3B47">HTTP :80 → Target Group (AZ-2)</text>

  <!-- AZ boxes -->
  <rect x="40" y="424" width="628" height="452" rx="8" fill="none" stroke="#2196F3" stroke-width="1.6" stroke-dasharray="8 5"/>
  <text x="354" y="446" text-anchor="middle" font-size="13.5" font-weight="700" fill="#2196F3">Availability Zone 1 (AZ-1)</text>
  <rect x="688" y="424" width="612" height="452" rx="8" fill="none" stroke="#2196F3" stroke-width="1.6" stroke-dasharray="8 5"/>
  <text x="994" y="446" text-anchor="middle" font-size="13.5" font-weight="700" fill="#2196F3">Availability Zone 2 (AZ-2)</text>

  <!-- Public subnets -->
  <rect x="76" y="456" width="576" height="92" rx="6" fill="#EAF7EA" stroke="#1D8102" stroke-width="1.5"/>
  <use href="#ic-lockg" xlink:href="#ic-lockg" x="78" y="458" width="30" height="30"/>
  <text x="116" y="478" font-size="11.5" font-weight="700" fill="#1D8102">Public Subnet - AZ1   ·   10.0.1.0/24</text>
  <text x="88" y="540" font-size="9" font-style="italic" fill="#4F7A4A">ALB subnet network interface resides here</text>
  <rect x="300" y="488" width="160" height="52" rx="6" fill="#FFFFFF" stroke="#1D8102" stroke-width="1.5"/>
  <use href="#ic-net" xlink:href="#ic-net" x="306" y="493" width="42" height="42"/>
  <text x="356" y="509" font-size="11" font-weight="700" fill="#16191F">NAT Gateway</text>
  <text x="356" y="525" font-size="9.5" fill="#3B3B47">az1 · dedicated EIP</text>

  <rect x="704" y="456" width="580" height="92" rx="6" fill="#EAF7EA" stroke="#1D8102" stroke-width="1.5"/>
  <use href="#ic-lockg" xlink:href="#ic-lockg" x="706" y="458" width="30" height="30"/>
  <text x="744" y="478" font-size="11.5" font-weight="700" fill="#1D8102">Public Subnet - AZ2   ·   10.0.2.0/24</text>
  <text x="716" y="540" font-size="9" font-style="italic" fill="#4F7A4A">ALB subnet network interface resides here</text>
  <rect x="938" y="488" width="160" height="52" rx="6" fill="#FFFFFF" stroke="#1D8102" stroke-width="1.5"/>
  <use href="#ic-net" xlink:href="#ic-net" x="944" y="493" width="42" height="42"/>
  <text x="994" y="509" font-size="11" font-weight="700" fill="#16191F">NAT Gateway</text>
  <text x="994" y="525" font-size="9.5" fill="#3B3B47">az2 · dedicated EIP</text>

  <!-- Auto Scaling Group -->
  <text x="674" y="571" text-anchor="middle" font-size="11" font-weight="700" fill="#ED7100">Auto Scaling Group  ·  dental-asg  ·  min 2 / desired 2 / max 6  ·  target-tracking on CPU utilisation</text>
  <rect x="68" y="578" width="1212" height="152" rx="8" fill="none" stroke="#ED7100" stroke-width="1.6" stroke-dasharray="8 5"/>

  <!-- Private app subnets -->
  <rect x="80" y="590" width="572" height="130" rx="6" fill="#EAF4FD" stroke="#2196F3" stroke-width="1.5"/>
  <use href="#ic-lockb" xlink:href="#ic-lockb" x="82" y="592" width="30" height="30"/>
  <text x="120" y="612" font-size="11" font-weight="700" fill="#1B6FBF">Private App Subnet - AZ1   ·   10.0.11.0/24</text>
  <g>
    <rect x="128" y="622" width="190" height="84" rx="6" fill="#FDF0E3" stroke="#ED7100" stroke-width="1.5"/>
    <use href="#ic-compute" xlink:href="#ic-compute" x="136" y="632" width="46" height="46"/>
    <text x="192" y="648" font-size="11" font-weight="700" fill="#16191F">EC2  t3.small</text>
    <text x="192" y="664" font-size="9.5" fill="#3B3B47">Nginx: 80</text>
    <text x="192" y="678" font-size="9.5" fill="#3B3B47">Next.js: 3000</text>
    <text x="192" y="692" font-size="9.5" fill="#3B3B47">FastAPI: 8000 (loopback)</text>
  </g>
  <text x="373" y="672" text-anchor="middle" font-size="17" fill="#5A5F66">· · ·</text>
  <g>
    <rect x="428" y="622" width="190" height="84" rx="6" fill="#FDF0E3" stroke="#ED7100" stroke-width="1.5"/>
    <use href="#ic-compute" xlink:href="#ic-compute" x="436" y="632" width="46" height="46"/>
    <text x="492" y="648" font-size="11" font-weight="700" fill="#16191F">EC2  t3.small</text>
    <text x="492" y="664" font-size="9.5" fill="#3B3B47">Nginx: 80</text>
    <text x="492" y="678" font-size="9.5" fill="#3B3B47">Next.js: 3000</text>
    <text x="492" y="692" font-size="9.5" fill="#3B3B47">FastAPI: 8000 (loopback)</text>
  </g>

  <rect x="700" y="590" width="572" height="130" rx="6" fill="#EAF4FD" stroke="#2196F3" stroke-width="1.5"/>
  <use href="#ic-lockb" xlink:href="#ic-lockb" x="702" y="592" width="30" height="30"/>
  <text x="740" y="612" font-size="11" font-weight="700" fill="#1B6FBF">Private App Subnet - AZ2   ·   10.0.12.0/24</text>
  <g>
    <rect x="752" y="622" width="190" height="84" rx="6" fill="#FDF0E3" stroke="#ED7100" stroke-width="1.5"/>
    <use href="#ic-compute" xlink:href="#ic-compute" x="760" y="632" width="46" height="46"/>
    <text x="816" y="648" font-size="11" font-weight="700" fill="#16191F">EC2  t3.small</text>
    <text x="816" y="664" font-size="9.5" fill="#3B3B47">Nginx: 80</text>
    <text x="816" y="678" font-size="9.5" fill="#3B3B47">Next.js: 3000</text>
    <text x="816" y="692" font-size="9.5" fill="#3B3B47">FastAPI: 8000 (loopback)</text>
  </g>
  <text x="991" y="672" text-anchor="middle" font-size="17" fill="#5A5F66">· · ·</text>
  <g>
    <rect x="1040" y="622" width="190" height="84" rx="6" fill="#FDF0E3" stroke="#ED7100" stroke-width="1.5"/>
    <use href="#ic-compute" xlink:href="#ic-compute" x="1048" y="632" width="46" height="46"/>
    <text x="1104" y="648" font-size="11" font-weight="700" fill="#16191F">EC2  t3.small</text>
    <text x="1104" y="664" font-size="9.5" fill="#3B3B47">Nginx: 80</text>
    <text x="1104" y="678" font-size="9.5" fill="#3B3B47">Next.js: 3000</text>
    <text x="1104" y="692" font-size="9.5" fill="#3B3B47">FastAPI: 8000 (loopback)</text>
  </g>

  <!-- NAT egress (dashed blue, outbound only) -->
  <path d="M223 620 V545" fill="none" stroke="#2196F3" stroke-width="1.4" stroke-dasharray="6 4" marker-end="url(#arrBlue)"/>
  <path d="M847 620 V545" fill="none" stroke="#2196F3" stroke-width="1.4" stroke-dasharray="6 4" marker-end="url(#arrBlue)"/>

  <!-- App -> DB -->
  <path d="M348 722 V752" stroke="#16191F" stroke-width="1.6" marker-end="url(#arrB)"/>
  <text x="372" y="742" font-size="9.5" fill="#3B3B47">TCP 5432</text>
  <path d="M996 722 V752" stroke="#16191F" stroke-width="1.6" marker-end="url(#arrB)"/>
  <text x="1020" y="742" font-size="9.5" fill="#3B3B47">TCP 5432</text>

  <!-- Private DB subnets -->
  <rect x="80" y="756" width="572" height="110" rx="6" fill="#EAF4FD" stroke="#2196F3" stroke-width="1.5"/>
  <use href="#ic-lockb" xlink:href="#ic-lockb" x="82" y="758" width="30" height="30"/>
  <text x="120" y="778" font-size="11" font-weight="700" fill="#1B6FBF">Private DB Subnet - AZ1   ·   10.0.21.0/24</text>
  <rect x="240" y="790" width="232" height="60" rx="6" fill="#FFFFFF" stroke="#2196F3" stroke-width="1.5"/>
  <use href="#ic-db" xlink:href="#ic-db" x="248" y="798" width="46" height="46"/>
  <text x="304" y="815" font-size="10.5" font-weight="700" fill="#16191F">Amazon RDS PostgreSQL</text>
  <text x="304" y="831" font-size="10" fill="#3B3B47">Primary</text>

  <rect x="700" y="756" width="572" height="110" rx="6" fill="#EAF4FD" stroke="#2196F3" stroke-width="1.5"/>
  <use href="#ic-lockb" xlink:href="#ic-lockb" x="702" y="758" width="30" height="30"/>
  <text x="740" y="778" font-size="11" font-weight="700" fill="#1B6FBF">Private DB Subnet - AZ2   ·   10.0.22.0/24</text>
  <rect x="880" y="790" width="232" height="60" rx="6" fill="#FFFFFF" stroke="#2196F3" stroke-width="1.5"/>
  <use href="#ic-db" xlink:href="#ic-db" x="888" y="798" width="46" height="46"/>
  <text x="944" y="815" font-size="10.5" font-weight="700" fill="#16191F">Amazon RDS PostgreSQL</text>
  <text x="944" y="831" font-size="10" fill="#3B3B47">Standby (Multi-AZ)</text>

  <path d="M474 826 H874" fill="none" stroke="#2196F3" stroke-width="1.5" stroke-dasharray="7 5" marker-end="url(#arrBlue)"/>
  <rect x="556" y="792" width="240" height="28" fill="#FFFFFF" opacity="0.92"/>
  <text x="676" y="803" text-anchor="middle" font-size="10.5" font-style="italic" fill="#1B6FBF">synchronous replication</text>
  <text x="676" y="817" text-anchor="middle" font-size="10.5" font-style="italic" fill="#1B6FBF">(automatic failover)</text>

  <!-- Monitoring panel -->
  <rect x="1332" y="370" width="210" height="456" rx="10" fill="#FDF2F8" stroke="#E7157B" stroke-width="1.8"/>
  <circle cx="1354" cy="392" r="12" fill="none" stroke="#E7157B" stroke-width="2.4"/>
  <text x="1374" y="396" font-size="11" font-weight="700" fill="#16191F">Monitoring &amp; Management</text>

  <rect x="1344" y="418" width="186" height="82" rx="7" fill="#FFFFFF" stroke="#E7157B" stroke-width="1.4"/>
  <use href="#ic-mon" xlink:href="#ic-mon" x="1354" y="428" width="42" height="42"/>
  <text x="1404" y="444" font-size="10" font-weight="700" fill="#16191F">Amazon CloudWatch</text>
  <text x="1404" y="459" font-size="9" fill="#3B3B47">Metrics · Logs · Alarms</text>
  <text x="1404" y="473" font-size="9" fill="#3B3B47">Target Group, RDS</text>

  <rect x="1344" y="518" width="186" height="82" rx="7" fill="#FFFFFF" stroke="#E7157B" stroke-width="1.4"/>
  <use href="#ic-alarm" xlink:href="#ic-alarm" x="1354" y="528" width="42" height="42"/>
  <text x="1404" y="544" font-size="10" font-weight="700" fill="#16191F">CloudWatch Alarms</text>
  <text x="1404" y="559" font-size="9" fill="#3B3B47">1 alarms · 5-min period</text>
  <text x="1404" y="573" font-size="9" fill="#3B3B47">ASG / ALB / TG / RDS</text>

  <rect x="1344" y="618" width="186" height="82" rx="7" fill="#FFFFFF" stroke="#E7157B" stroke-width="1.4"/>
  <use href="#ic-sns" xlink:href="#ic-sns" x="1354" y="628" width="42" height="42"/>
  <text x="1404" y="644" font-size="10" font-weight="700" fill="#16191F">Amazon SNS</text>
  <text x="1404" y="659" font-size="9" fill="#3B3B47">Topic — email</text>
  <text x="1404" y="673" font-size="9" fill="#3B3B47">subscription</text>

  <rect x="1344" y="718" width="186" height="82" rx="7" fill="#FFFFFF" stroke="#E7157B" stroke-width="1.4"/>
  <use href="#ic-ssm" xlink:href="#ic-ssm" x="1354" y="728" width="42" height="42"/>
  <text x="1404" y="744" font-size="10" font-weight="700" fill="#16191F">Systems Manager</text>
  <text x="1404" y="759" font-size="9" fill="#3B3B47">Session Manager</text>
  <text x="1404" y="773" font-size="9" fill="#3B3B47">via LuminaEC2SSMRole</text>

  <path d="M1338 459 H1322" stroke="#E7157B" stroke-width="1.4" stroke-dasharray="6 4" marker-end="url(#arrPink)"/>
  <path d="M1338 672 H1288" stroke="#E7157B" stroke-width="1.4" stroke-dasharray="6 4" marker-end="url(#arrPink)"/>
  <path d="M1338 756 H1290 V712" fill="none" stroke="#E7157B" stroke-width="1.4" stroke-dasharray="6 4" marker-end="url(#arrPink)"/>
  <text x="1276" y="748" text-anchor="end" font-size="9" font-style="italic" fill="#E7157B">Session Manager</text>

  <!-- Legend: component types -->
  <rect x="18" y="898" width="468" height="110" rx="7" fill="#FFFFFF" stroke="#C8CDD3" stroke-width="1.3"/>
  <text x="32" y="920" font-size="11" font-weight="700" fill="#16191F">Component types</text>
  <use href="#ic-edge" xlink:href="#ic-edge" x="32" y="932" width="24" height="24"/>
  <text x="64" y="948" font-size="9.5" fill="#3B3B47">Edge / CDN</text>
  <use href="#ic-waf" xlink:href="#ic-waf" x="168" y="932" width="24" height="24"/>
  <text x="200" y="948" font-size="9.5" fill="#3B3B47">Security (WAF)</text>
  <use href="#ic-compute" xlink:href="#ic-compute" x="312" y="932" width="24" height="24"/>
  <text x="344" y="948" font-size="9.5" fill="#3B3B47">Compute (EC2/ASG)</text>
  <use href="#ic-db" xlink:href="#ic-db" x="32" y="968" width="24" height="24"/>
  <text x="64" y="984" font-size="9.5" fill="#3B3B47">Database (RDS)</text>
  <use href="#ic-net" xlink:href="#ic-net" x="168" y="968" width="24" height="24"/>
  <text x="200" y="984" font-size="9.5" fill="#3B3B47">Networking (NAT/IGW)</text>
  <use href="#ic-mon" xlink:href="#ic-mon" x="312" y="968" width="24" height="24"/>
  <text x="344" y="984" font-size="9.5" fill="#3B3B47">Monitoring / mgmt</text>

  <!-- Legend: connectors -->
  <rect x="498" y="898" width="356" height="110" rx="7" fill="#FFFFFF" stroke="#C8CDD3" stroke-width="1.3"/>
  <text x="512" y="920" font-size="11" font-weight="700" fill="#16191F">Connector meaning</text>
  <path d="M516 942 H568" stroke="#16191F" stroke-width="1.6" marker-end="url(#arrB)"/>
  <text x="580" y="946" font-size="9.5" fill="#3B3B47">User / application traffic (data plane)</text>
  <path d="M516 968 H568" stroke="#2196F3" stroke-width="1.5" stroke-dasharray="6 4" marker-end="url(#arrBlue)"/>
  <text x="580" y="972" font-size="9.5" fill="#3B3B47">Outbound-only instance traffic</text>
  <path d="M516 994 H568" stroke="#E7157B" stroke-width="1.5" stroke-dasharray="6 4" marker-end="url(#arrPink)"/>
  <text x="580" y="998" font-size="9.5" fill="#3B3B47">Monitoring / management (control plane)</text>

  <!-- Legend: security -->
  <rect x="866" y="898" width="676" height="110" rx="7" fill="#FFFFFF" stroke="#C8CDD3" stroke-width="1.3"/>
  <text x="880" y="920" font-size="11" font-weight="700" fill="#16191F">Security boundaries (as implemented)</text>
  <rect x="880" y="934" width="38" height="18" rx="3" fill="none" stroke="#2196F3" stroke-width="1.4" stroke-dasharray="5 3"/>
  <text x="930" y="947" font-size="9.5" fill="#1B6FBF">alb-sg (0.0.0.0/0 : 80)   →   ec2-sg (from alb-sg :80)   →   rds-sg (from ec2-sg :5432)</text>
  <text x="880" y="971" font-size="9.5" fill="#1B6FBF">No public IPs on EC2 or RDS   ·   no inbound SSH   ·   admin access only via Systems Manager Session Manager</text>
  <text x="880" y="993" font-size="9.5" fill="#1B6FBF">DB subnet route tables carry no internet route in either direction</text>
</svg>
